<svg width="133" height="130" viewBox="0 0 133 130" fill="none" xmlns="http://www.w3.org/2000/svg">
<g filter="url(#filter0_d_19_108)">
<rect x="30.0078" y="30.7817" width="72.067" height="68.9855" rx="15" fill="#F13B8E"/>
</g>
<path d="M78.8251 56.6991C78.8251 57.5316 78.3659 58.287 77.6376 58.6724L74.8826 60.1216L72.5392 61.3395L67.6784 63.8987C67.1559 64.1762 66.5859 64.3149 66 64.3149C65.4142 64.3149 64.8442 64.1762 64.3217 63.8987L54.3625 58.6724C53.6342 58.287 53.175 57.5316 53.175 56.6991C53.175 55.8666 53.6342 55.1112 54.3625 54.7258L57.4817 53.0916L59.9675 51.7812L64.3217 49.4995C65.3667 48.9445 66.6334 48.9445 67.6784 49.4995L77.6376 54.7258C78.3659 55.1112 78.8251 55.8666 78.8251 56.6991Z" fill="white"/>
<path d="M62.675 65.7178L53.4125 61.2161C52.7 60.8615 51.8766 60.9078 51.1958 61.3086C50.515 61.7094 50.1191 62.4186 50.1191 63.1894V71.7149C50.1191 73.1948 50.9583 74.5207 52.32 75.1836L61.5825 79.6853C61.8991 79.8394 62.2475 79.9165 62.5958 79.9165C63.0075 79.9165 63.4191 79.8086 63.7833 79.5773C64.4641 79.1765 64.86 78.4673 64.86 77.6965V69.1711C64.8758 67.7065 64.0366 66.3807 62.675 65.7178Z" fill="white"/>
<path d="M81.8808 63.1893V71.7147C81.8808 73.1793 81.0416 74.5051 79.6799 75.1681L70.4174 79.6851C70.1008 79.8393 69.7524 79.9164 69.4041 79.9164C68.9924 79.9164 68.5808 79.8085 68.2008 79.5772C67.5358 79.1764 67.1241 78.4672 67.1241 77.6964V69.1864C67.1241 67.7064 67.9633 66.3806 69.3249 65.7176L72.7291 64.0681L75.1041 62.9118L78.5874 61.216C79.2999 60.8614 80.1233 60.8922 80.8041 61.3085C81.4691 61.7093 81.8808 62.4185 81.8808 63.1893Z" fill="white"/>
<path d="M74.8825 60.1217L72.5392 61.3396L57.4817 53.0917L59.9675 51.7812L74.5025 59.7671C74.6609 59.8596 74.7875 59.9829 74.8825 60.1217Z" fill="white"/>
<path d="M75.1042 62.9121V66.4117C75.1042 67.0438 74.5659 67.5679 73.9167 67.5679C73.2675 67.5679 72.7292 67.0438 72.7292 66.4117V64.0684L75.1042 62.9121Z" fill="white"/>
<defs>
<filter id="filter0_d_19_108" x="0.0078125" y="0.781738" width="132.067" height="128.985" filterUnits="userSpaceOnUse" color-interpolation-filters="sRGB">
<feFlood flood-opacity="0" result="BackgroundImageFix"/>
<feColorMatrix in="SourceAlpha" type="matrix" values="0 0 0 0 0 0 0 0 0 0 0 0 0 0 0 0 0 0 127 0" result="hardAlpha"/>
<feOffset/>
<feGaussianBlur stdDeviation="15"/>
<feComposite in2="hardAlpha" operator="out"/>
<feColorMatrix type="matrix" values="0 0 0 0 0 0 0 0 0 0 0 0 0 0 0 0 0 0 0.15 0"/>
<feBlend mode="normal" in2="BackgroundImageFix" result="effect1_dropShadow_19_108"/>
<feBlend mode="normal" in="SourceGraphic" in2="effect1_dropShadow_19_108" result="shape"/>
</filter>
</defs>
</svg>
