<svg width="66" height="65" viewBox="0 0 66 65" fill="none" xmlns="http://www.w3.org/2000/svg">
<path opacity="0.3" fill-rule="evenodd" clip-rule="evenodd" d="M0.896851 32.236V41.472C0.896851 54.1746 11.1943 64.472 23.8968 64.472H33.3349H42.773C55.4755 64.472 65.773 54.1746 65.773 41.472V32.236V23C65.773 10.2975 55.4755 0 42.773 0H33.3349H23.8969C11.1943 0 0.896851 10.2975 0.896851 23V32.236Z" fill="#8280FF"/>
<path d="M40.4062 46.875C41.9768 46.875 43.25 45.765 43.25 44.3958C43.25 43.0266 41.9768 41.9167 40.4062 41.9167C38.8357 41.9167 37.5625 43.0266 37.5625 44.3958C37.5625 45.765 38.8357 46.875 40.4062 46.875Z" fill="#8280FF"/>
<path d="M27.4062 46.875C28.9768 46.875 30.25 45.765 30.25 44.3958C30.25 43.0266 28.9768 41.9167 27.4062 41.9167C25.8357 41.9167 24.5625 43.0266 24.5625 44.3958C24.5625 45.765 25.8357 46.875 27.4062 46.875Z" fill="#8280FF"/>
<path d="M21.865 20.5817L21.54 24.0525C21.475 24.7183 22.0763 25.2708 22.84 25.2708H47.7188C48.4012 25.2708 48.97 24.8175 49.0187 24.2225C49.23 21.715 47.0362 19.675 44.16 19.675H24.1887C24.0262 19.0517 23.7012 18.4567 23.1975 17.9608C22.385 17.21 21.2475 16.7708 20.0775 16.7708H17.25C16.5838 16.7708 16.0312 17.2525 16.0312 17.8333C16.0312 18.4142 16.5838 18.8958 17.25 18.8958H20.0775C20.5813 18.8958 21.0525 19.08 21.3938 19.3917C21.735 19.7175 21.8975 20.1425 21.865 20.5817Z" fill="#8280FF"/>
<path d="M47.3288 27.3958H22.4013C21.7188 27.3958 21.1663 27.8492 21.1013 28.43L20.5163 34.5925C20.2888 37.015 22.4663 39.0833 25.245 39.0833H43.315C45.7525 39.0833 47.8975 37.3408 48.0763 35.2158L48.6125 28.6C48.6775 27.9483 48.0925 27.3958 47.3288 27.3958Z" fill="#8280FF"/>
</svg>
