<svg width="46" height="46" viewBox="0 0 46 46" fill="none" xmlns="http://www.w3.org/2000/svg">
<circle cx="22.6822" cy="22.7702" r="22.5" transform="rotate(0.109738 22.6822 22.7702)" fill="#48872C"/>
<path d="M12.2596 19.7502L12.2644 17.2502C12.2692 14.7602 14.283 12.7541 16.773 12.7589L19.273 12.7637" stroke="white" stroke-width="1.5" stroke-linecap="round" stroke-linejoin="round"/>
<path d="M25.273 12.7751L27.773 12.7799C30.263 12.7847 32.2691 14.7985 32.2644 17.2885L32.2596 19.7885" stroke="white" stroke-width="1.5" stroke-linecap="round" stroke-linejoin="round"/>
<path d="M32.2461 26.7886L32.2433 28.2886C32.2385 30.7786 30.2247 32.7847 27.7347 32.78L26.2347 32.7771" stroke="white" stroke-width="1.5" stroke-linecap="round" stroke-linejoin="round"/>
<path d="M19.2347 32.7636L16.7347 32.7588C14.2447 32.7541 12.2386 30.7402 12.2433 28.2502L12.2481 25.7502" stroke="white" stroke-width="1.5" stroke-linecap="round" stroke-linejoin="round"/>
<path d="M20.7634 17.7665L20.7596 19.7665C20.7577 20.7665 20.2567 21.2656 19.2567 21.2637L17.2567 21.2598C16.2567 21.2579 15.7577 20.7569 15.7596 19.757L15.7634 17.757C15.7653 16.757 16.2663 16.2579 17.2663 16.2598L19.2663 16.2637C20.2663 16.2656 20.7653 16.7665 20.7634 17.7665Z" stroke="white" stroke-width="1.5" stroke-linecap="round" stroke-linejoin="round"/>
<path d="M28.7634 17.7819L28.7596 19.7819C28.7577 20.7819 28.2567 21.2809 27.2567 21.279L25.2567 21.2752C24.2567 21.2733 23.7577 20.7723 23.7596 19.7723L23.7634 17.7723C23.7653 16.7723 24.2663 16.2733 25.2663 16.2752L27.2663 16.279C28.2663 16.281 28.7653 16.7819 28.7634 17.7819Z" stroke="white" stroke-width="1.5" stroke-linecap="round" stroke-linejoin="round"/>
<path d="M20.7481 25.7665L20.7443 27.7665C20.7423 28.7665 20.2414 29.2656 19.2414 29.2637L17.2414 29.2598C16.2414 29.2579 15.7424 28.7569 15.7443 27.757L15.7481 25.757C15.75 24.757 16.251 24.2579 17.251 24.2598L19.251 24.2637C20.251 24.2656 20.75 24.7665 20.7481 25.7665Z" stroke="white" stroke-width="1.5" stroke-linecap="round" stroke-linejoin="round"/>
<path d="M28.7481 25.7819L28.7443 27.7819C28.7423 28.7819 28.2414 29.2809 27.2414 29.279L25.2414 29.2752C24.2414 29.2733 23.7424 28.7723 23.7443 27.7723L23.7481 25.7723C23.75 24.7723 24.251 24.2733 25.251 24.2752L27.251 24.279C28.251 24.281 28.75 24.7819 28.7481 25.7819Z" stroke="white" stroke-width="1.5" stroke-linecap="round" stroke-linejoin="round"/>
</svg>
