<svg width="81" height="65" viewBox="0 0 81 65" fill="none" xmlns="http://www.w3.org/2000/svg">
<path opacity="0.3" fill-rule="evenodd" clip-rule="evenodd" d="M0.572266 32.7267V41.9627C0.572266 54.6653 10.8697 64.9627 23.5722 64.9627H40.6094H57.6466C70.3492 64.9627 80.6466 54.6653 80.6466 41.9627V32.7267V23.4907C80.6466 10.7881 70.3492 0.490683 57.6466 0.490683H40.6094H23.5723C10.8697 0.490683 0.572266 10.7881 0.572266 23.4907V32.7267Z" fill="#FF9066"/>
<path opacity="0.78" fill-rule="evenodd" clip-rule="evenodd" d="M38.7869 26.0305C38.8114 25.7739 39.0269 25.578 39.2846 25.578H40.1678C40.4201 25.578 40.6329 25.766 40.664 26.0164L41.4993 32.7416L47.4362 35.4731C47.6136 35.5547 47.7273 35.7321 47.7273 35.9274V36.418C47.7273 36.7374 47.4319 36.9749 47.12 36.9064L38.373 34.9857C38.1261 34.9314 37.9585 34.7014 37.9825 34.4497L38.7869 26.0305Z" fill="#FF9066"/>
<path opacity="0.901274" fill-rule="evenodd" clip-rule="evenodd" d="M30.7455 16.4471C30.4519 16.1654 29.9001 16.2592 29.7967 16.6083L27.5254 24.2751C27.4384 24.5687 27.7363 24.8554 28.1107 24.8383L37.9062 24.3913C38.3521 24.371 38.5638 23.9491 38.2697 23.667L35.7141 21.2147C37.2686 20.7869 38.9171 20.5635 40.6098 20.5635C48.9632 20.5635 55.735 26.0158 55.735 32.7416C55.735 39.4673 48.9632 44.9196 40.6098 44.9196C32.2564 44.9196 25.4846 39.4673 25.4846 32.7416C25.4846 31.6125 25.6745 30.5067 26.0448 29.4438L22.6182 28.6699C22.1671 29.9649 21.9258 31.3306 21.9258 32.7416C21.9258 41.0499 30.2909 47.7851 40.6098 47.7851C50.9287 47.7851 59.2938 41.0499 59.2938 32.7416C59.2938 24.4333 50.9287 17.6981 40.6098 17.6981C38.0142 17.6981 35.5423 18.1243 33.2959 18.8944L30.7455 16.4471Z" fill="#FF9066"/>
</svg>
