<svg width="81" height="65" viewBox="0 0 81 65" fill="none" xmlns="http://www.w3.org/2000/svg">
<path opacity="0.3" fill-rule="evenodd" clip-rule="evenodd" d="M0 32.236V41.472C0 54.1746 10.2974 64.472 23 64.472H40.0372H57.0743C69.7769 64.472 80.0743 54.1746 80.0743 41.472V32.236V23C80.0743 10.2975 69.7769 0 57.0744 0H40.0372H23C10.2975 0 0 10.2975 0 23V32.236Z" fill="#8280FF"/>
<path opacity="0.78" fill-rule="evenodd" clip-rule="evenodd" d="M38.2146 25.5398C38.2391 25.2832 38.4546 25.0873 38.7123 25.0873H39.5955C39.8478 25.0873 40.0606 25.2753 40.0917 25.5257L40.927 32.2509L46.864 34.9824C47.0413 35.064 47.155 35.2414 47.155 35.4367V35.9273C47.155 36.2467 46.8597 36.4842 46.5478 36.4157L37.8007 34.495C37.5538 34.4407 37.3862 34.2107 37.4103 33.9591L38.2146 25.5398Z" fill="#8280FF"/>
<path opacity="0.901274" fill-rule="evenodd" clip-rule="evenodd" d="M30.1732 15.9564C29.8797 15.6747 29.3279 15.7685 29.2244 16.1176L26.9531 23.7844C26.8662 24.078 27.164 24.3647 27.5384 24.3476L37.334 23.9007C37.7798 23.8803 37.9915 23.4584 37.6975 23.1763L35.1418 20.724C36.6964 20.2963 38.3449 20.0729 40.0375 20.0729C48.3909 20.0729 55.1627 25.5252 55.1627 32.2509C55.1627 38.9767 48.3909 44.429 40.0375 44.429C31.6841 44.429 24.9124 38.9767 24.9124 32.2509C24.9124 31.1218 25.1023 30.016 25.4726 28.9531L22.046 28.1792C21.5948 29.4742 21.3535 30.8399 21.3535 32.2509C21.3535 40.5592 29.7186 47.2944 40.0375 47.2944C50.3564 47.2944 58.7215 40.5592 58.7215 32.2509C58.7215 23.9426 50.3564 17.2074 40.0375 17.2074C37.4419 17.2074 34.97 17.6336 32.7237 18.4037L30.1732 15.9564Z" fill="#8280FF"/>
</svg>
