<svg width="52" height="51" viewBox="0 0 52 51" fill="none" xmlns="http://www.w3.org/2000/svg">
<path d="M19.8681 33.1075C19.4565 33.1075 19.0448 32.9588 18.7198 32.64C18.0915 32.0237 18.0915 31.0038 18.7198 30.3875L30.9831 18.36C31.6115 17.7437 32.6515 17.7437 33.2798 18.36C33.9081 18.9762 33.9081 19.9962 33.2798 20.6125L21.0165 32.64C20.7131 32.9588 20.2798 33.1075 19.8681 33.1075Z" fill="#171717"/>
<path d="M32.1315 33.1075C31.7198 33.1075 31.3081 32.9588 30.9831 32.64L18.7198 20.6125C18.0915 19.9962 18.0915 18.9762 18.7198 18.36C19.3481 17.7437 20.3881 17.7437 21.0165 18.36L33.2798 30.3875C33.9081 31.0038 33.9081 32.0237 33.2798 32.64C32.9548 32.9588 32.5431 33.1075 32.1315 33.1075Z" fill="#171717"/>
<path d="M32.5002 48.3438H19.5002C7.73516 48.3438 2.7085 43.4137 2.7085 31.875V19.125C2.7085 7.58625 7.73516 2.65625 19.5002 2.65625H32.5002C44.2652 2.65625 49.2918 7.58625 49.2918 19.125V31.875C49.2918 43.4137 44.2652 48.3438 32.5002 48.3438ZM19.5002 5.84375C9.51183 5.84375 5.9585 9.32875 5.9585 19.125V31.875C5.9585 41.6713 9.51183 45.1562 19.5002 45.1562H32.5002C42.4885 45.1562 46.0418 41.6713 46.0418 31.875V19.125C46.0418 9.32875 42.4885 5.84375 32.5002 5.84375H19.5002Z" fill="#171717"/>
</svg>
