<svg width="46" height="46" viewBox="0 0 46 46" fill="none" xmlns="http://www.w3.org/2000/svg">
<circle cx="22.892" cy="23.2671" r="22.5" transform="rotate(0.109738 22.892 23.2671)" fill="#48872C"/>
<path d="M25.4084 14.6918L25.3925 23.0017C25.3906 24.0217 24.559 24.8502 23.539 24.8482L14.389 24.8307C13.839 24.8296 13.3899 24.3788 13.3909 23.8288L13.4031 17.4388C13.4071 15.3988 15.0602 13.7519 17.1002 13.7558L24.4802 13.77C25.0002 13.771 25.4094 14.1818 25.4084 14.6918Z" fill="white"/>
<path d="M32.8843 27.2861C33.1643 27.2866 33.3839 27.5071 33.3834 27.7871L33.3815 28.7871C33.3783 30.4471 32.0357 31.7845 30.3757 31.7813C30.3789 30.1313 29.0315 28.7787 27.3815 28.7756C25.7315 28.7724 24.3789 30.1198 24.3757 31.7698L22.3757 31.766C22.3789 30.116 21.0315 28.7634 19.3815 28.7602C17.7315 28.7571 16.3789 30.1045 16.3757 31.7545C14.7157 31.7513 13.3783 30.4088 13.3815 28.7488L13.3853 26.7488C13.3864 26.1988 13.8372 25.7496 14.3872 25.7507L23.8872 25.7689C25.2672 25.7715 26.3894 24.6537 26.392 23.2737L26.4025 17.7737C26.4036 17.2237 26.8545 16.7745 27.4045 16.7756L28.2445 16.7772C28.9645 16.7786 29.6237 17.1698 29.9825 17.7905L30.6204 18.9118C30.7101 19.0719 30.5897 19.2817 30.3997 19.2813C29.0197 19.2787 27.8975 20.3965 27.8949 21.7765L27.8891 24.7765C27.8865 26.1565 29.0043 27.2787 30.3843 27.2813L32.8843 27.2861Z" fill="white"/>
<path d="M19.3719 33.7603C20.4765 33.7624 21.3736 32.8687 21.3757 31.7641C21.3779 30.6596 20.4841 29.7624 19.3796 29.7603C18.275 29.7582 17.3779 30.6519 17.3757 31.7565C17.3736 32.861 18.2673 33.7582 19.3719 33.7603Z" fill="white"/>
<path d="M27.3719 33.7756C28.4765 33.7777 29.3736 32.884 29.3757 31.7794C29.3779 30.6748 28.4841 29.7777 27.3796 29.7756C26.275 29.7734 25.3779 30.6672 25.3757 31.7717C25.3736 32.8763 26.2673 33.7734 27.3719 33.7756Z" fill="white"/>
<path d="M33.39 24.3171L33.3872 25.7871L30.3872 25.7813C29.8372 25.7803 29.3881 25.3294 29.3891 24.7794L29.3949 21.7794C29.3959 21.2294 29.8468 20.7803 30.3968 20.7813L31.6868 20.7838L33.1319 23.3266C33.3013 23.6269 33.3907 23.9671 33.39 24.3171Z" fill="white"/>
</svg>
