<svg width="133" height="129" viewBox="0 0 133 129" fill="none" xmlns="http://www.w3.org/2000/svg">
<g filter="url(#filter0_d_19_196)">
<rect x="30" y="30" width="72.067" height="68.9855" rx="15" fill="#4B32F0"/>
</g>
<rect width="35" height="35" transform="translate(49 46)" fill="#4B32F0"/>
<path d="M79.7271 53.627C77.3792 53.3937 75.0312 53.2187 72.6687 53.0875V53.0729L72.3479 51.177C72.1292 49.8354 71.8083 47.8229 68.3958 47.8229H64.575C61.1771 47.8229 60.8562 49.7479 60.6229 51.1625L60.3167 53.0291C58.9604 53.1166 57.6042 53.2041 56.2479 53.3354L53.2729 53.627C52.6604 53.6854 52.2229 54.225 52.2812 54.8229C52.3396 55.4208 52.8646 55.8583 53.4771 55.8L56.4521 55.5083C64.0937 54.75 71.7937 55.0416 79.5229 55.8145C79.5667 55.8145 79.5958 55.8145 79.6396 55.8145C80.1937 55.8145 80.675 55.3916 80.7333 54.8229C80.7771 54.225 80.3396 53.6854 79.7271 53.627Z" fill="white"/>
<path d="M77.0437 57.8709C76.6937 57.5063 76.2125 57.3021 75.7167 57.3021H57.2833C56.7875 57.3021 56.2917 57.5063 55.9562 57.8709C55.6208 58.2355 55.4312 58.7313 55.4604 59.2417L56.3646 74.2042C56.525 76.4209 56.7292 79.1917 61.8187 79.1917H71.1812C76.2708 79.1917 76.475 76.4355 76.6354 74.2042L77.5396 59.2563C77.5687 58.7313 77.3792 58.2355 77.0437 57.8709ZM68.9208 71.8855H64.0646C63.4667 71.8855 62.9708 71.3896 62.9708 70.7917C62.9708 70.1938 63.4667 69.698 64.0646 69.698H68.9208C69.5187 69.698 70.0146 70.1938 70.0146 70.7917C70.0146 71.3896 69.5187 71.8855 68.9208 71.8855ZM70.1458 66.0521H62.8542C62.2562 66.0521 61.7604 65.5563 61.7604 64.9584C61.7604 64.3605 62.2562 63.8646 62.8542 63.8646H70.1458C70.7437 63.8646 71.2396 64.3605 71.2396 64.9584C71.2396 65.5563 70.7437 66.0521 70.1458 66.0521Z" fill="white"/>
<defs>
<filter id="filter0_d_19_196" x="0" y="0" width="132.067" height="128.985" filterUnits="userSpaceOnUse" color-interpolation-filters="sRGB">
<feFlood flood-opacity="0" result="BackgroundImageFix"/>
<feColorMatrix in="SourceAlpha" type="matrix" values="0 0 0 0 0 0 0 0 0 0 0 0 0 0 0 0 0 0 127 0" result="hardAlpha"/>
<feOffset/>
<feGaussianBlur stdDeviation="15"/>
<feComposite in2="hardAlpha" operator="out"/>
<feColorMatrix type="matrix" values="0 0 0 0 0 0 0 0 0 0 0 0 0 0 0 0 0 0 0.15 0"/>
<feBlend mode="normal" in2="BackgroundImageFix" result="effect1_dropShadow_19_196"/>
<feBlend mode="normal" in="SourceGraphic" in2="effect1_dropShadow_19_196" result="shape"/>
</filter>
</defs>
</svg>
