<svg width="22" height="22" viewBox="0 0 22 22" fill="none" xmlns="http://www.w3.org/2000/svg">
<path d="M13.0913 5.98394H19.0451C19.5172 5.98394 19.7533 5.98394 19.8914 6.08321C20.0118 6.16982 20.0903 6.30313 20.1075 6.45049C20.1272 6.61939 20.0125 6.82575 19.7832 7.23848L18.3624 9.79607C18.2792 9.94574 18.2376 10.0206 18.2213 10.0998C18.2069 10.17 18.2069 10.2423 18.2213 10.3125C18.2376 10.3917 18.2792 10.4666 18.3624 10.6163L19.7832 13.1738C20.0125 13.5866 20.1272 13.7929 20.1075 13.9618C20.0903 14.1092 20.0118 14.2425 19.8914 14.3291C19.7533 14.4284 19.5172 14.4284 19.0451 14.4284H11.6135C11.0224 14.4284 10.7268 14.4284 10.501 14.3133C10.3024 14.2121 10.1409 14.0507 10.0397 13.852C9.92466 13.6262 9.92466 13.3307 9.92466 12.7395V10.2062M6.23021 20.7617L2.00799 3.87283M3.59137 10.2062H11.4024C11.9936 10.2062 12.2892 10.2062 12.515 10.0911C12.7136 9.98992 12.8751 9.82844 12.9763 9.62982C13.0913 9.40402 13.0913 9.10844 13.0913 8.51727V3.45061C13.0913 2.85944 13.0913 2.56386 12.9763 2.33806C12.8751 2.13945 12.7136 1.97797 12.515 1.87677C12.2892 1.76172 11.9936 1.76172 11.4024 1.76172H3.64329C2.90596 1.76172 2.53729 1.76172 2.28514 1.9145C2.06414 2.0484 1.89993 2.25871 1.82363 2.50559C1.73657 2.78727 1.82599 3.14493 2.00483 3.86024L3.59137 10.2062Z" stroke="#414651" stroke-width="2" stroke-linecap="round" stroke-linejoin="round"/>
</svg>

