<svg width="55" height="51" viewBox="0 0 55 51" fill="none" xmlns="http://www.w3.org/2000/svg">
<path d="M34.3752 48.3438H20.6252C8.18141 48.3438 2.86475 43.4137 2.86475 31.875V19.125C2.86475 7.58625 8.18141 2.65625 20.6252 2.65625H34.3752C46.8189 2.65625 52.1356 7.58625 52.1356 19.125V31.875C52.1356 43.4137 46.8189 48.3438 34.3752 48.3438ZM20.6252 5.84375C10.0606 5.84375 6.30225 9.32875 6.30225 19.125V31.875C6.30225 41.6713 10.0606 45.1562 20.6252 45.1562H34.3752C44.9397 45.1562 48.6981 41.6713 48.6981 31.875V19.125C48.6981 9.32875 44.9397 5.84375 34.3752 5.84375H20.6252Z" fill="#171717"/>
<path d="M36.0938 20.7188H18.9063C17.9667 20.7188 17.1875 19.9962 17.1875 19.125C17.1875 18.2538 17.9667 17.5312 18.9063 17.5312H36.0938C37.0333 17.5312 37.8125 18.2538 37.8125 19.125C37.8125 19.9962 37.0333 20.7188 36.0938 20.7188Z" fill="#171717"/>
<path d="M36.0938 33.4688H18.9063C17.9667 33.4688 17.1875 32.7462 17.1875 31.875C17.1875 31.0038 17.9667 30.2812 18.9063 30.2812H36.0938C37.0333 30.2812 37.8125 31.0038 37.8125 31.875C37.8125 32.7462 37.0333 33.4688 36.0938 33.4688Z" fill="#171717"/>
</svg>
