<svg width="133" height="130" viewBox="0 0 133 130" fill="none" xmlns="http://www.w3.org/2000/svg">
<g filter="url(#filter0_d_19_95)">
<rect x="30.0156" y="30.2179" width="72.067" height="68.9855" rx="15" fill="#48872C"/>
</g>
<path d="M66.8438 72.1865H68.0083C69.1729 72.1865 70.1404 71.1232 70.1404 69.8399C70.1404 68.2449 69.585 67.9332 68.6713 67.6032L66.8617 66.9615V72.1865H66.8438Z" fill="white"/>
<path d="M65.4463 46.4834C55.5563 46.5201 47.5475 54.7518 47.5833 64.8718C47.6192 74.9918 55.6638 83.1868 65.5538 83.1501C75.4438 83.1134 83.4525 74.8818 83.4167 64.7618C83.3808 54.6418 75.3363 46.4651 65.4463 46.4834ZM69.5492 65.0001C70.9467 65.4951 72.8279 66.5584 72.8279 69.8401C72.8279 72.6634 70.66 74.9368 68.0083 74.9368H66.8438V76.0001C66.8438 76.7518 66.2346 77.3751 65.5 77.3751C64.7654 77.3751 64.1563 76.7518 64.1563 76.0001V74.9368H63.5113C60.5729 74.9368 58.19 72.4068 58.19 69.2901C58.19 68.5384 58.7992 67.9151 59.5338 67.9151C60.2683 67.9151 60.8775 68.5384 60.8775 69.2901C60.8775 70.8851 62.06 72.1868 63.5113 72.1868H64.1563V65.9901L61.4508 65.0001C60.0533 64.5051 58.1721 63.4418 58.1721 60.1601C58.1721 57.3368 60.34 55.0634 62.9917 55.0634H64.1563V54.0001C64.1563 53.2484 64.7654 52.6251 65.5 52.6251C66.2346 52.6251 66.8438 53.2484 66.8438 54.0001V55.0634H67.4888C70.4271 55.0634 72.81 57.5934 72.81 60.7101C72.81 61.4618 72.2008 62.0851 71.4663 62.0851C70.7317 62.0851 70.1225 61.4618 70.1225 60.7101C70.1225 59.1151 68.94 57.8134 67.4888 57.8134H66.8438V64.0101L69.5492 65.0001Z" fill="white"/>
<path d="M60.8775 60.1782C60.8775 61.7732 61.4329 62.0849 62.3467 62.4149L64.1563 63.0566V57.8132H62.9917C61.8271 57.8132 60.8775 58.8766 60.8775 60.1782Z" fill="white"/>
<defs>
<filter id="filter0_d_19_95" x="0.015625" y="0.217896" width="132.067" height="128.985" filterUnits="userSpaceOnUse" color-interpolation-filters="sRGB">
<feFlood flood-opacity="0" result="BackgroundImageFix"/>
<feColorMatrix in="SourceAlpha" type="matrix" values="0 0 0 0 0 0 0 0 0 0 0 0 0 0 0 0 0 0 127 0" result="hardAlpha"/>
<feOffset/>
<feGaussianBlur stdDeviation="15"/>
<feComposite in2="hardAlpha" operator="out"/>
<feColorMatrix type="matrix" values="0 0 0 0 0 0 0 0 0 0 0 0 0 0 0 0 0 0 0.15 0"/>
<feBlend mode="normal" in2="BackgroundImageFix" result="effect1_dropShadow_19_95"/>
<feBlend mode="normal" in="SourceGraphic" in2="effect1_dropShadow_19_95" result="shape"/>
</filter>
</defs>
</svg>
