<svg width="46" height="46" viewBox="0 0 46 46" fill="none" xmlns="http://www.w3.org/2000/svg">
<circle cx="22.601" cy="23.2478" r="22.5" transform="rotate(0.109738 22.601 23.2478)" fill="#48872C"/>
<path d="M29.9209 18.0117L31.2809 18.0143C31.0915 17.7439 30.8919 17.4936 30.6824 17.2432L29.9209 18.0117Z" fill="white"/>
<path d="M29.6345 16.1812C29.3849 15.9707 29.1353 15.7702 28.8657 15.5797L28.8631 16.9397L29.6345 16.1812Z" fill="white"/>
<path d="M30.6925 17.2432L33.6481 14.2988C33.9387 14.0094 33.9396 13.5294 33.6501 13.2389C33.3607 12.9483 32.8807 12.9474 32.5901 13.2368L29.6345 16.1812C30.0139 16.5119 30.3632 16.8726 30.6925 17.2432Z" fill="white"/>
<path d="M28.8672 14.7597C28.868 14.3497 28.5287 14.009 28.1187 14.0083C27.7187 14.0075 27.398 14.3269 27.3773 14.7168C27.8968 14.9678 28.3963 15.2488 28.8657 15.5797L28.8672 14.7597Z" fill="white"/>
<path d="M32.8596 18.7673C32.8604 18.3573 32.521 18.0167 32.111 18.0159L31.281 18.0143C31.6101 18.4849 31.8991 18.9855 32.1382 19.5059C32.5382 19.4867 32.8588 19.1673 32.8596 18.7673Z" fill="white"/>
<path d="M23.8447 26.5L24.1447 26.5006C24.5347 26.5014 24.8454 26.152 24.8462 25.722C24.8472 25.182 24.6974 25.1017 24.3576 24.981L23.848 24.8L23.8447 26.5Z" fill="white"/>
<path d="M32.1481 19.5059C32.1381 19.5059 32.1281 19.5159 32.1081 19.5159L28.1081 19.5082C28.0081 19.508 27.9181 19.4878 27.8182 19.4477C27.6384 19.3673 27.4886 19.227 27.409 19.0369C27.3792 18.9468 27.3593 18.8568 27.3595 18.7568L27.3672 14.7568C27.3672 14.7468 27.3772 14.7368 27.3773 14.7168C26.0784 14.1043 24.6391 13.7516 23.1191 13.7486C17.5991 13.7381 13.1106 18.2095 13.1 23.7295C13.0894 29.2495 17.5608 33.738 23.0808 33.7486C28.6008 33.7592 33.0894 29.2878 33.1 23.7678C33.1029 22.2478 32.7556 20.8071 32.1481 19.5059ZM24.8503 23.572C25.4899 23.7932 26.349 24.2648 26.3462 25.7348C26.3438 26.9848 25.3518 28.0129 24.1418 28.0106L23.8418 28.0101L23.8413 28.2601C23.8405 28.6701 23.4999 29.0094 23.0899 29.0086C22.6799 29.0078 22.3405 28.6672 22.3413 28.2572L22.3418 28.0072L22.2618 28.007C20.9318 28.0045 19.844 26.8824 19.8466 25.5024C19.8474 25.0824 20.1881 24.7431 20.5981 24.7438C21.0081 24.7446 21.3474 25.0853 21.3466 25.4953C21.3456 26.0453 21.7547 26.4961 22.2647 26.497L22.3447 26.4972L22.349 24.2772L21.3496 23.9253C20.7101 23.704 19.851 23.2324 19.8538 21.7624C19.8562 20.5124 20.8481 19.4843 22.0581 19.4866L22.3581 19.4872L22.3586 19.2472C22.3594 18.8372 22.7 18.4979 23.11 18.4986C23.52 18.4994 23.8594 18.8401 23.8586 19.2501L23.8581 19.5001L23.9381 19.5002C25.2681 19.5028 26.356 20.6249 26.3533 22.0049C26.3525 22.4149 26.0119 22.7542 25.6019 22.7534C25.1919 22.7526 24.8525 22.412 24.8533 22.002C24.8544 21.452 24.4452 21.0012 23.9352 21.0002L23.8552 21.0001L23.851 23.2201L24.8503 23.572Z" fill="white"/>
<path d="M21.3537 21.7754C21.3527 22.3154 21.5025 22.3956 21.8423 22.5163L22.352 22.6973L22.3552 20.9973L22.0552 20.9967C21.6752 20.996 21.3546 21.3454 21.3537 21.7754Z" fill="white"/>
</svg>
