<svg width="81" height="65" viewBox="0 0 81 65" fill="none" xmlns="http://www.w3.org/2000/svg">
<path opacity="0.3" fill-rule="evenodd" clip-rule="evenodd" d="M0 32.236V41.472C0 54.1746 10.2974 64.472 23 64.472H40.0372H57.0743C69.7769 64.472 80.0743 54.1746 80.0743 41.472V32.236V23C80.0743 10.2975 69.7769 0 57.0744 0H40.0372H23C10.2975 0 0 10.2975 0 23V32.236Z" fill="#8280FF"/>
<path d="M40.8438 40.1865H42.0083C43.1729 40.1865 44.1404 39.1232 44.1404 37.8399C44.1404 36.2449 43.585 35.9332 42.6713 35.6032L40.8617 34.9615V40.1865H40.8438Z" fill="#8280FF"/>
<path d="M39.446 14.4834C29.556 14.5201 21.5473 22.7518 21.5831 32.8718C21.619 42.9918 29.6635 51.1868 39.5535 51.1501C49.4435 51.1134 57.4523 42.8818 57.4165 32.7618C57.3806 22.6418 49.336 14.4651 39.446 14.4834ZM43.549 33.0001C44.9465 33.4951 46.8277 34.5584 46.8277 37.8401C46.8277 40.6634 44.6598 42.9368 42.0081 42.9368H40.8435V44.0001C40.8435 44.7518 40.2344 45.3751 39.4998 45.3751C38.7652 45.3751 38.156 44.7518 38.156 44.0001V42.9368H37.511C34.5727 42.9368 32.1898 40.4068 32.1898 37.2901C32.1898 36.5384 32.799 35.9151 33.5335 35.9151C34.2681 35.9151 34.8773 36.5384 34.8773 37.2901C34.8773 38.8851 36.0598 40.1868 37.511 40.1868H38.156V33.9901L35.4506 33.0001C34.0531 32.5051 32.1719 31.4418 32.1719 28.1601C32.1719 25.3368 34.3398 23.0634 36.9915 23.0634H38.156V22.0001C38.156 21.2484 38.7652 20.6251 39.4998 20.6251C40.2344 20.6251 40.8435 21.2484 40.8435 22.0001V23.0634H41.4885C44.4269 23.0634 46.8098 25.5934 46.8098 28.7101C46.8098 29.4618 46.2006 30.0851 45.466 30.0851C44.7315 30.0851 44.1223 29.4618 44.1223 28.7101C44.1223 27.1151 42.9398 25.8134 41.4885 25.8134H40.8435V32.0101L43.549 33.0001Z" fill="#8280FF"/>
<path d="M34.8774 28.1782C34.8774 29.7732 35.4329 30.0849 36.3466 30.4149L38.1562 31.0566V25.8132H36.9916C35.827 25.8132 34.8774 26.8766 34.8774 28.1782Z" fill="#8280FF"/>
</svg>
