<svg width="133" height="130" viewBox="0 0 133 130" fill="none" xmlns="http://www.w3.org/2000/svg">
<g filter="url(#filter0_d_19_120)">
<rect x="30.0156" y="30.2411" width="72.067" height="68.9855" rx="15" fill="#FB6238"/>
</g>
<path d="M82.5833 81.9688H53.5416C50.0054 81.9688 47.1354 79.2388 47.1354 75.875V48.25C47.1354 47.5838 47.7162 47.0312 48.4166 47.0312C49.117 47.0312 49.6979 47.5838 49.6979 48.25V75.875C49.6979 77.89 51.4233 79.5312 53.5416 79.5312H82.5833C83.2837 79.5312 83.8645 80.0838 83.8645 80.75C83.8645 81.4162 83.2837 81.9688 82.5833 81.9688Z" fill="white"/>
<path d="M53.5416 73.8437C53.2511 73.8437 52.9436 73.7462 52.7045 73.5512C52.1749 73.1125 52.1066 72.3487 52.5678 71.8287L60.4091 63.1187C61.2632 62.1762 62.4932 61.6075 63.7916 61.5587C65.0899 61.5262 66.3711 61.9812 67.2936 62.8587L68.9166 64.4025C69.3436 64.8087 69.8903 65.0037 70.5053 65.0037C71.1032 64.9875 71.6499 64.7275 72.0428 64.2887L79.8841 55.5787C80.3453 55.075 81.1482 55.01 81.6949 55.4487C82.2245 55.8875 82.2928 56.6512 81.8316 57.1712L73.9903 65.8812C73.1361 66.8237 71.9061 67.3925 70.6078 67.4412C69.2924 67.4737 68.0282 67.0187 67.1057 66.1412L65.4999 64.5975C65.0728 64.1912 64.5091 63.98 63.9111 63.9962C63.3132 64.0125 62.7666 64.2725 62.3736 64.7112L54.5324 73.4212C54.2591 73.6975 53.9003 73.8437 53.5416 73.8437Z" fill="white"/>
<defs>
<filter id="filter0_d_19_120" x="0.015625" y="0.241089" width="132.067" height="128.985" filterUnits="userSpaceOnUse" color-interpolation-filters="sRGB">
<feFlood flood-opacity="0" result="BackgroundImageFix"/>
<feColorMatrix in="SourceAlpha" type="matrix" values="0 0 0 0 0 0 0 0 0 0 0 0 0 0 0 0 0 0 127 0" result="hardAlpha"/>
<feOffset/>
<feGaussianBlur stdDeviation="15"/>
<feComposite in2="hardAlpha" operator="out"/>
<feColorMatrix type="matrix" values="0 0 0 0 0 0 0 0 0 0 0 0 0 0 0 0 0 0 0.15 0"/>
<feBlend mode="normal" in2="BackgroundImageFix" result="effect1_dropShadow_19_120"/>
<feBlend mode="normal" in="SourceGraphic" in2="effect1_dropShadow_19_120" result="shape"/>
</filter>
</defs>
</svg>
