<svg width="81" height="64" viewBox="0 0 81 64" fill="none" xmlns="http://www.w3.org/2000/svg">
<path opacity="0.21" fill-rule="evenodd" clip-rule="evenodd" d="M40.5695 63.2048C40.5628 63.2048 40.5562 63.2048 40.5495 63.2048C40.5428 63.2048 40.5361 63.2048 40.5295 63.2048H23.4732C10.7706 63.2048 0.473145 52.9074 0.473145 40.2048V31.9398V23.6747C0.473145 10.9721 10.7706 0.6747 23.4731 0.6747H40.5495H57.6258C70.3284 0.6747 80.6258 10.9721 80.6258 23.6747V31.9398V40.2048C80.6258 52.9074 70.3284 63.2048 57.6258 63.2048H40.5695Z" fill="#4AD991"/>
<path d="M26.0037 43.2878H57.1742C58.3219 43.2878 59.2522 44.0136 59.2522 44.909C59.2522 45.8043 58.3219 46.5301 57.1742 46.5301H23.9257C22.778 46.5301 21.8477 45.8043 21.8477 44.909V18.9706C21.8477 18.0752 22.778 17.3494 23.9257 17.3494C25.0734 17.3494 26.0037 18.0752 26.0037 18.9706V43.2878Z" fill="#4AD991"/>
<path opacity="0.5" d="M33.7537 36.2908C32.9688 36.944 31.6537 36.9771 30.8165 36.3648C29.9792 35.7524 29.9368 34.7265 30.7217 34.0733L38.5143 27.5887C39.2735 26.957 40.5349 26.9022 41.3792 27.4643L47.5296 31.5587L55.5431 23.64C56.2542 22.9373 57.561 22.8174 58.4617 23.3722C59.3625 23.927 59.5162 24.9464 58.8051 25.6491L49.454 34.8897C48.7236 35.6114 47.3707 35.7152 46.4741 35.1183L40.19 30.9349L33.7537 36.2908Z" fill="#4AD991"/>
</svg>
