<svg width="81" height="63" viewBox="0 0 81 63" fill="none" xmlns="http://www.w3.org/2000/svg">
<path opacity="0.21" fill-rule="evenodd" clip-rule="evenodd" d="M40.0963 62.5301C40.0897 62.5301 40.083 62.5301 40.0763 62.5301C40.0697 62.5301 40.063 62.5301 40.0563 62.5301H23C10.2975 62.5301 0 52.2327 0 39.5301V31.2651V23C0 10.2974 10.2975 0 23 0H40.0763H57.1527C69.8552 0 80.1527 10.2974 80.1527 23V31.2651V39.5301C80.1527 52.2327 69.8552 62.5301 57.1527 62.5301H40.0963Z" fill="#4B32F0"/>
<path d="M25.5301 42.6131H56.7006C57.8482 42.6131 58.7786 43.3389 58.7786 44.2343C58.7786 45.1296 57.8482 45.8554 56.7006 45.8554H23.4521C22.3044 45.8554 21.374 45.1296 21.374 44.2343V18.2959C21.374 17.4005 22.3044 16.6747 23.4521 16.6747C24.5997 16.6747 25.5301 17.4005 25.5301 18.2959V42.6131Z" fill="#4B32F0"/>
<path opacity="0.5" d="M33.2801 35.6161C32.4951 36.2693 31.1801 36.3024 30.3428 35.6901C29.5056 35.0777 29.4631 34.0518 30.2481 33.3986L38.0407 26.914C38.7998 26.2823 40.0613 26.2275 40.9056 26.7896L47.056 30.884L55.0695 22.9653C55.7806 22.2626 57.0873 22.1427 57.9881 22.6975C58.8889 23.2523 59.0426 24.2717 58.3315 24.9744L48.9803 34.215C48.2499 34.9367 46.8971 35.0405 46.0004 34.4436L39.7163 30.2602L33.2801 35.6161Z" fill="#4B32F0"/>
</svg>
